<?xml version="1.0" encoding="UTF-8" standalone="no"?>
<!-- Created with Inkscape (http://www.inkscape.org/) -->

<svg
   width="125.06992mm"
   height="119.80379mm"
   viewBox="0 0 125.06989 119.80378"
   version="1.1"
   id="svg5"
   xmlns="http://www.w3.org/2000/svg"
   xmlns:svg="http://www.w3.org/2000/svg">
  <defs
     id="defs2" />
  <g
     id="layer1"
     transform="translate(-20.595964,-66.132755)">
    <ellipse
       style="fill:#a1a1a1;fill-opacity:1;stroke-width:0.296268"
       id="path31"
       cx="41.654232"
       cy="111.03957"
       rx="17.058268"
       ry="15.962766" />
    <ellipse
       style="fill:#a1a1a1;fill-opacity:1;stroke-width:0.523783"
       id="path31-3"
       cx="71.51815"
       cy="96.298325"
       rx="32.526829"
       ry="26.165569" />
    <ellipse
       style="fill:#a1a1a1;fill-opacity:1;stroke-width:0.325146"
       id="path31-1"
       cx="112.62884"
       cy="101.96344"
       rx="19.27137"
       ry="17.018229" />
    <ellipse
       style="fill:#a1a1a1;fill-opacity:1;stroke-width:0.231303"
       id="path31-12"
       cx="127.86406"
       cy="114.97984"
       rx="13.801818"
       ry="12.025364" />
    <rect
       style="fill:#a1a1a1;fill-opacity:1;stroke-width:0.665928"
       id="rect38"
       width="86.783325"
       height="21.166674"
       x="41.275002"
       y="105.83333" />
  </g>
  <g
     id="layer2"
     style="display:inline"
     transform="translate(-20.595964,-66.132755)">
    <path
       id="rect168-8"
       style="fill:#92b6ff;fill-opacity:1;stroke-width:0.678"
       d="m 58.208333,129.64583 h 13.229168 l -10.823254,26.59735 c -3.968751,9.26041 -16.404168,6.08542 -12.700001,-2.11667 z" />
    <path
       id="rect168-8-0"
       style="fill:#92b6ff;fill-opacity:1;stroke-width:0.678"
       d="m 119.0625,129.64583 h 13.22916 l -11.49696,31.27872 c -3.47586,9.45645 -15.86813,6.30699 -12.7,-2.11667 z" />
    <path
       id="rect168-8-0-8"
       style="fill:#92b6ff;fill-opacity:1;stroke-width:0.678"
       d="m 99.21875,129.64583 h 13.22914 l -5.39847,13.17551 c -3.96877,9.26041 -16.404183,6.08542 -12.700016,-2.11667 z" />
    <path
       id="rect168-8-0-8-2"
       style="fill:#92b6ff;fill-opacity:1;stroke-width:0.678"
       d="m 38.364583,129.64583 h 13.22915 l -7.395243,19.30748 c -3.968763,9.26041 -16.404175,6.08542 -12.700008,-2.11667 z" />
  </g>
  <g
     id="layer3"
     style="display:inline"
     transform="translate(-20.595964,-66.132755)" />
  <g
     id="layer7"
     style="display:none"
     transform="translate(-20.595964,-66.132755)">
    <path
       id="rect8569-8"
       style="display:inline;fill:#3d7aab;fill-opacity:1;stroke-width:0.678"
       d="m 77.608183,172.14918 7.132897,-15.57941 -15.949414,6.14898 2.802929,11.4515 z" />
    <path
       id="path3351-2"
       style="display:inline;fill:#ffdd55;fill-opacity:1;stroke-width:0.678"
       d="m 90.752082,154.25208 -6.011002,2.31769 -7.132897,15.57941 17.112649,-5.75107 z" />
  </g>
  <g
     id="layer8"
     style="display:none"
     transform="translate(1.4999988,1.4999991)">
    <path
       id="rect8569"
       style="display:inline;fill:#3d7aab;fill-opacity:1;stroke-width:2.56252"
       d="M 316.92578,593.05273 260,615 l 10.59375,43.28125 19.83594,-6.66602 z"
       transform="matrix(0.26458333,0,0,0.26458333,-22.095964,-67.632755)" />
    <path
       id="path3351"
       style="display:inline;fill:#ffdd55;fill-opacity:1;stroke-width:2.56252"
       d="m 343,583 -19.53516,7.53125 -26.92187,59.0293 L 358,628.90625 Z"
       transform="matrix(0.26458333,0,0,0.26458333,-22.095964,-67.632755)" />
  </g>
  <g
     id="layer5"
     style="display:inline"
     transform="translate(-20.595964,-66.132755)">
    <path
       id="rect168-8-0-8-9"
       style="display:inline;fill:#ffdd55;fill-opacity:1;stroke-width:0.678"
       d="m 81.154661,156.91453 17.63883,-7.16511 -16.079934,32.18712 -9.283284,-4.44564 c -1.197028,-0.57324 -1.896092,-2.07975 -1.498821,-3.34602 1.106878,-3.52807 2.674177,-7.02545 5.775589,-10.42056 z" />
    <path
       id="rect8569-8-5"
       style="display:inline;fill:#ffdd55;fill-opacity:1;stroke-width:2.56252"
       d="m 289.88042,310.36219 -117.37222,28.47362 -13.51992,32.67005 107.5,-17.21875 z"
       transform="matrix(0.26458333,0,0,0.26458333,22.095964,67.632755)" />
    <path
       id="rect4445"
       style="fill:#ffffff;stroke-width:0.187054"
       transform="matrix(0.43146417,-0.90213007,0.9022628,0.43118655,0,0)"
       d="m -128.48828,149.6497 c 1.25037,0.38099 2.54982,0.36151 3.811,0 v 0.51498 c -1.26171,0.4271 -2.53645,0.30279 -3.811,0 z" />
  </g>
  <g
     id="layer4"
     style="display:inline"
     transform="translate(-20.595964,-66.132755)">
    <path
       id="rect168-8-0-8-0-5"
       style="display:inline;fill:#ffdd55;fill-opacity:1;stroke-width:2.56252"
       d="m 245.43945,284.68555 -60.25,23.95703 -22.95117,55.48828 52.90381,-11.5 z"
       transform="matrix(0.26458333,0,0,0.26458333,22.095964,67.632755)" />
    <path
       id="path2391"
       style="display:inline;fill:#3d7aab;fill-opacity:1;stroke-width:2.56252"
       d="m 215.48828,234.38086 -26.99609,66.03516 59.86719,-23.15821 17.1289,-42.87695 z"
       transform="matrix(0.26458333,0,0,0.26458333,22.095964,67.632755)" />
  </g>
  <g
     id="layer6"
     transform="translate(-20.595964,-66.132755)">
    <circle
       style="display:inline;fill:#ffffff;fill-opacity:1;stroke-width:0.678"
       id="path2631"
       cx="76.676254"
       cy="174.61339"
       r="1.8520833" />
  </g>
</svg>
